# xmcd
# 
# Track frame offsets:
#     150
#     2766
#     14782
#     26350
#     38053
#     51893
#     61513
#     70967
#     84504
#     95343
#     108308
#     118030
#     131163
#     147691
#     159204
#     167664
#     171708
#     181575
#     190989
#     209535
#     213186
#     219650
#     238704
# 
# Disc length: 3208
# 
# Revision: 0
# Processed by: cddbd v1.5.2PL0 Copyright (c) Steve Scherf et al.
# Submitted via: BonkEnc v1.0.8
# 
DISCID=480c8617
DTITLE=Hedgedogs - Country Music
DYEAR=2009
DGENRE=Country
TTITLE0=album inconnu - 01 - titre inconnu
TTITLE1=album inconnu - 02 - titre inconnu
TTITLE2=album inconnu - 03 - titre inconnu
TTITLE3=album inconnu - 04 - titre inconnu
TTITLE4=album inconnu - 05 - titre inconnu
TTITLE5=album inconnu - 06 - titre inconnu
TTITLE6=album inconnu - 07 - titre inconnu
TTITLE7=album inconnu - 08 - titre inconnu
TTITLE8=album inconnu - 09 - titre inconnu
TTITLE9=album inconnu - 10 - titre inconnu
TTITLE10=album inconnu - 11 - titre inconnu
TTITLE11=album inconnu - 12 - titre inconnu
TTITLE12=album inconnu - 13 - titre inconnu
TTITLE13=album inconnu - 14 - titre inconnu
TTITLE14=album inconnu - 15 - titre inconnu
TTITLE15=album inconnu - 16 - titre inconnu
TTITLE16=album inconnu - 17 - titre inconnu
TTITLE17=album inconnu - 18 - titre inconnu
TTITLE18=album inconnu - 19 - titre inconnu
TTITLE19=album inconnu - 20 - titre inconnu
TTITLE20=album inconnu - 21 - titre inconnu
TTITLE21=album inconnu - 22 - titre inconnu
TTITLE22=album inconnu - 23 - titre inconnu
EXTD=
EXTT0=
EXTT1=
EXTT2=
EXTT3=
EXTT4=
EXTT5=
EXTT6=
EXTT7=
EXTT8=
EXTT9=
EXTT10=
EXTT11=
EXTT12=
EXTT13=
EXTT14=
EXTT15=
EXTT16=
EXTT17=
EXTT18=
EXTT19=
EXTT20=
EXTT21=
EXTT22=
PLAYORDER=
